<svg xmlns="http://www.w3.org/2000/svg" width="1903" height="937" viewBox="0 0 1903 937">
  <defs>
    <style>
      .cls-1 {
        fill: #535353;
        fill-rule: evenodd;
      }
    </style>
  </defs>
  <path id="Forma_3" data-name="Forma 3" class="cls-1" d="M984.6,393.281s22.735-11.212,31.605,18.087,33.87,63.3,33.87,63.3,14.73,19.309,40.64,38.433,36.12,21.477,36.12,21.477,1.14,3.29-6.77,5.652c0,0-26.06-2.09-47.41-13.564s-45.81-27.175-53.06-36.173-13.34-11.824-18.06-20.347l-1.13-1.13s-3.764,33.537,1.13,56.519c0,0,7.17,45.375,15.8,63.3a257.2,257.2,0,0,0,22.58,46.346s17.47,29.469,42.89,50.868c0,0,33.2,31.315,71.12,45.216,0,0,41.02,18.853,85.79,20.347,0,0,47.32,3.984,71.12-3.391,0,0,48.04-6.032,92.57-33.912,0,0,33.89-21.1,64.34-57.65,0,0,28.88-33.243,38.38-87.04,0,0,7.38-50.588-15.8-101.736,0,0-20.44-57.521-79.02-120.952,0,0-47.59-53.144-93.7-88.17,0,0-64.31-52.752-127.55-82.519,0,0-79.38-42.748-147.88-56.52,0,0-52.091-13.946-104.986-18.086,0,0-51.077-4.672-146.75,5.652,0,0-103.439,13.606-214.481,82.519,0,0-66.756,42.926-107.24,89.3,0,0-35.658,37.112-66.6,90.431a437.2,437.2,0,0,0-40.638,93.823s-8.663,30.949-15.8,72.345c0,0-8.751,70.889-1.129,118.691,0,0,2.016,36.195,19.191,94.953,0,0,12.367,38.927,28.221,68.954,0,0,23.467,47.782,50.8,79.127S477.744,937,477.744,937l-9.031-6.782s-43.89-26.845-92.565-104c0,0-47.085-72.377-62.086-188.776,0,0-5.74-91.35,2.257-129.995,0,0,7.416-50.3,22.577-89.3a495.226,495.226,0,0,1,32.737-73.475s25.2-44.235,50.8-73.476c0,0,32.081-39.1,44.025-47.476,0,0,24.761-26.046,66.6-55.39,0,0,56.143-37.2,72.246-41.824A479.978,479.978,0,0,1,691.1,90.336S743.339,70.605,781.4,67.728a579.063,579.063,0,0,1,86.921-9.043s68.828-1.79,117.4,6.782c0,0,68.816,9.783,133.206,32.781,0,0,42.6,14.105,109.5,50.868,0,0,77.15,41.534,135.46,92.692,0,0,40.48,31.011,101.59,102.866,0,0,30.21,34.107,55.32,87.04,0,0,19.54,37.076,25.96,75.736,0,0,7.38,63.586-3.39,89.3,0,0-11.3,49.344-39.51,82.519,0,0-16.78,26.132-59.82,59.91,0,0-44.3,29.911-83.54,41.825,0,0-48.61,22.186-146.75,13.565,0,0-65.59-10.094-103.85-33.912,0,0-53.41-21.342-106.11-96.084,0,0-26.9-31.474-46.287-118.691,0,0-8.5-50.976-1.129-84.779,0,0-32.709,17.733-75.632,68.954a736.134,736.134,0,0,0-45.154,59.911,7.672,7.672,0,0,1-5.644-1.131c-3.2-1.857-2.258-15.825-2.258-15.825s20.851-51.336,31.608-65.563c0,0,7.658-16.653,37.251-49.737,0,0,6.289-8.474,49.67-44.086C946.215,413.628,967.27,398.089,984.6,393.281ZM934.926,654.4s140.964,281.552,482.014,143.56c0,0,257.05-117.519,141.11-370.769,0,0-156.59-363.077-632.155-405.811,0,0-342.482-28.861-559.907,261.121,0,0-38.408,52.678-69.988,132.256,0,0,37.5-235.77,325.107-360.6,0,0,318.81-147.383,645.7,48.607,0,0,312.43,167.874,338.65,411.462,0,0,38.94,201.119-188.52,308.6C1416.94,822.83,1085.49,966.781,934.926,654.4ZM379.534,669.1S335.319,328.831,713.673,186.42c0,0,227.075-98.858,479.757,58.78,0,0,181.54,103.516,247.22,247.556,0,0,45.07,94.174-56.44,165.037,0,0-54.65,49.583-173.85,38.433,0,0,72.93,20.406,127.56,3.392,0,0,46.96-11.735,85.8-53.129,0,0,71.94-62.951,30.47-166.167,0,0-54.95-138.7-247.21-252.078s-399.858-120.293-571.2-32.781C635.782,195.463,323.684,341.892,379.534,669.1Z"/>
</svg>
