<svg xmlns="http://www.w3.org/2000/svg" width="1920" height="1040" viewBox="0 0 1920 1040">
  <defs>
    <style>
      .cls-1 {
        fill: #0e0707;
        fill-rule: evenodd;
      }
    </style>
  </defs>
  <path id="Arrastra_tu_click" data-name="Arrastra tu click" class="cls-1" d="M493.085,191.223q-27.63-20.526-34.914-26.381l-26.535,23.152q10.708,17.175,21.726,37.11,15.963,30.241,22.653,43.611l12.8-11.172-5.051-10.6q3.917,1.638,6.054,2.572L497,252.66a67.193,67.193,0,0,1,1.893-9.5q2.06-5.84,2.728-7.124l6.757,4.447,24.15-21.071q-24.84-17.6-39.443-28.184h0Zm-5.994,44.733q-4.218,4.613-5.542,5.768-3.414-7.207-5.149-11.6-2.922-7.714-4.14-11.162,6.808,3.079,10.5,4.992,6.483,3.6,9.275,5.282a57.732,57.732,0,0,1-4.943,6.724h0Zm22.068-110.993a282.255,282.255,0,0,0-23.765,17.415q18.2,24.654,28.036,38.876,16.94,24,24.424,34.374l27.69-17.931-10.655-17.532,0.1-.063q10.11,6.018,14.793,8.291,9.695,4.192,12.268,5.039,3.309-5.563,7.193-11.638,5.67-8.49,7.442-10.823a136.4,136.4,0,0,1-14.1-3.016q-10.192-3.452-13.052-4.741a29.969,29.969,0,0,0,5.544-16.016,31.693,31.693,0,0,0-5.317-19.313q-19.236-29.706-60.6-2.922h0Zm45.475,37.776a17.226,17.226,0,0,1-6.1,6.534l-10.6-17.012a17.3,17.3,0,0,1,8.107-3.435,8.278,8.278,0,0,1,8.266,4.141,9.049,9.049,0,0,1,.325,9.772h0Zm37.7-84.8a282.511,282.511,0,0,0-26.071,13.725q14.37,27.064,22.007,42.581,13.221,26.235,19.1,37.6L637.39,158.18l-7.958-18.911,0.107-.048q9.114,7.441,13.411,10.379,8.971,5.574,11.393,6.791,4.091-5.016,8.827-10.453,6.86-7.561,8.955-9.608a136.73,136.73,0,0,1-13.5-5.059q-9.573-4.915-12.212-6.612a29.963,29.963,0,0,0,7.842-15.025,31.692,31.692,0,0,0-2.415-19.886Q637.186,57.534,592.33,77.936h0ZM631.746,122a17.224,17.224,0,0,1-7,5.564l-7.977-18.387a17.284,17.284,0,0,1,8.525-2.2,8.276,8.276,0,0,1,7.566,5.313A9.049,9.049,0,0,1,631.746,122h0ZM722.763,77.47q-16.776-30.055-21.018-38.382l-33.7,10.228q2.719,20.056,4.589,42.757,2.151,34.127,2.767,49.064l16.26-4.935-0.257-11.74q2.9,3.1,4.467,4.829l5.255,5.815a67.214,67.214,0,0,1,5.626-7.893q4.272-4.479,5.409-5.377l4.338,6.828,30.67-9.309Q731.737,93.118,722.763,77.47h0Zm-23.818,38.336q-5.739,2.476-7.421,2.987-0.156-7.972.066-12.7,0.5-8.233.8-11.878,4.946,5.6,7.527,8.86,4.435,5.942,6.291,8.623a57.718,57.718,0,0,1-7.266,4.1h0Zm86.52-94.945a86.351,86.351,0,0,0-19.578,1.212q-15.016,2.9-22.85,10.854-8.979,9.133-6.3,23,2.564,13.29,15.36,20.846,6.6,3.918,13.2,7.777a12.371,12.371,0,0,1,5.084,7.791q1.254,6.5-7.318,8.155a45.652,45.652,0,0,1-8.815.089q2.471,5.073,3.9,8.14,2.419,5.741,3.449,8.285,4.743,0.457,14.178-1.363,10.239-1.976,16.059-9.245a20.054,20.054,0,0,0,4.265-17.173q-1.277-6.615-7.745-13.543t-7-9.689a7.33,7.33,0,0,1,1.583-6.333,7.762,7.762,0,0,1,4.592-2.8,32.153,32.153,0,0,1,6.633-.265Zm12.48-2.173,5.341,36.5,8.24-1.757L820.7,52.1q1.524,8.265,3.033,16.943,3.956,25.094,5.67,36.815l28.2-2.99q-1.164-24.858-1.874-37.688-0.522-13.26-.537-16.736,6.952-.56,10.059-0.713,5.067-.007,7.376.1L870.429,11Zm112.97-10.84a282.5,282.5,0,0,0-29.373,2.31q2.51,30.54,3.4,47.811,1.78,29.325,2.691,42.082l32.981-.685,0.16-20.516,0.117,0q5.433,10.436,8.22,14.832,6.039,8.666,7.783,10.74,5.74-2.993,12.239-6.115,9.288-4.237,12.022-5.29a136.547,136.547,0,0,1-10.4-9.981q-6.853-8.3-8.607-10.9a29.974,29.974,0,0,0,13.14-10.7,31.7,31.7,0,0,0,5.637-19.223q-0.735-35.382-50-34.36h0Zm18.8,56.047a17.217,17.217,0,0,1-8.625,2.347L921.03,46.2a17.29,17.29,0,0,1,8.7,1.343,8.275,8.275,0,0,1,4.852,7.87,9.046,9.046,0,0,1-4.864,8.482h0Zm99.451-7.871q-4.935-34.066-5.92-43.359l-35.123-2.49q-4.627,19.7-10.994,41.573Q966.947,84.39,962.184,98.561l16.949,1.2,3.956-11.056q1.6,3.932,2.445,6.106l2.831,7.308a67.234,67.234,0,0,1,8.075-5.36q5.595-2.657,6.97-3.089l1.62,7.927,31.97,2.266q-5.04-30.02-7.83-47.841h0ZM993.222,83.315q-6.246.262-8,.138,2.7-7.5,4.6-11.833,3.41-7.512,5-10.807,2.618,7,3.864,10.965,2.023,7.134,2.789,10.3a57.484,57.484,0,0,1-8.248,1.236h0Zm85.918-64.467-5.71,36.441,8.39,0.761,9.15,1.449q-0.99,8.346-2.12,17.081-3.645,25.14-5.48,36.842l27.82,5.5q6.255-24.089,9.37-36.553,3.435-12.82,4.44-16.144,6.81,1.524,9.82,2.3,4.845,1.494,7.02,2.281l8.81-35.828Zm132.28,32.016q-5.415,22.859-8.75,35.626-7.11,25.342-10.67,36.872a11.022,11.022,0,0,1-4.72-.231q-6.885-2.13-7.69-7.654-0.78-5.21,3.18-18.213,5.01-17.159,8.05-26.4,5.55-16.559,8.12-23.862l-36.11-11.169q-4.35,15.459-8.42,34.563-4.485,20.633-4.86,28.8-0.705,14.194,5.48,22.917,7.305,10.3,25.67,15.974a89.777,89.777,0,0,0,30.81,3.89q9.72-31.4,15.07-46.736l12.49-35.818Zm124.14,51.015q-3.975-3.269-14.06-7.969-20.985-9.769-38.47-3.3-16.4,6.069-24.91,24.342-9.195,19.759-1.97,38.118a44.506,44.506,0,0,0,23.52,24.718q9.3,4.326,16.31,4.813,2.64-3.875,5.19-7.407,4-5.248,5.54-7.18a22.524,22.524,0,0,1-11.2-2.046q-7.695-3.587-10.26-10.5a17.885,17.885,0,0,1,.84-14.245q4.38-9.4,12.71-11.6,7.38-1.989,15.89,1.968a28.688,28.688,0,0,1,7.07,4.39Zm23.6,97.64q-10.455-4.623-15.38-7.466l40.25-62.961-35.21-20.346q-12.525,25.652-19.96,40.035-14.79,27.931-21.42,40l45.91,26.532q3.06-4.122,5.68-7.008,4.62-4.839,6.3-6.576a55.715,55.715,0,0,1-6.17-2.21h0Zm49.76-55.227-47.02,76.844,27.25,18.38q15.63-21.61,24.82-34.076l28.66-38.41Zm93.66,68.818q-3.135-4.087-11.89-10.958-18.21-14.285-36.71-11.964-17.34,2.181-29.79,18.04-13.44,17.151-10.59,36.671a44.556,44.556,0,0,0,17.29,29.419q8.07,6.327,14.79,8.4,3.45-3.172,6.74-6.032,5.085-4.2,7.03-5.732a22.494,22.494,0,0,1-10.44-4.539q-6.69-5.244-7.62-12.56a17.884,17.884,0,0,1,4.07-13.679q6.4-8.161,15.01-8.409,7.65-.257,15.02,5.529a28.391,28.391,0,0,1,5.89,5.883Z"/>
  <path id="Forma_3" data-name="Forma 3" class="cls-1" d="M1030.02,489.66s22.94-11.307,31.9,18.24,34.18,63.84,34.18,63.84,14.87,19.474,41.02,38.76,36.46,21.66,36.46,21.66,1.16,3.318-6.83,5.7c0,0-26.3-2.108-47.86-13.68s-46.23-27.406-53.55-36.48-13.46-11.925-18.23-20.52l-1.14-1.14s-3.8,33.823,1.14,57c0,0,7.24,45.761,15.95,63.84a259.665,259.665,0,0,0,22.79,46.74s17.63,29.72,43.3,51.3c0,0,33.51,31.582,71.78,45.6,0,0,41.4,19.013,86.59,20.52,0,0,47.76,4.019,71.79-3.42,0,0,48.48-6.083,93.43-34.2,0,0,34.21-21.277,64.94-58.14,0,0,29.16-33.525,38.74-87.78,0,0,7.45-51.017-15.95-102.6,0,0-20.63-58.01-79.76-121.98,0,0-48.03-53.6-94.57-88.92,0,0-64.91-53.2-128.75-83.219,0,0-80.12-43.112-149.26-57,0,0-52.58-14.065-105.966-18.24,0,0-51.555-4.713-148.123,5.7,0,0-104.406,13.721-216.486,83.22,0,0-67.381,43.29-108.244,90.059,0,0-35.991,37.429-67.225,91.2a440.689,440.689,0,0,0-41.018,94.62s-8.744,31.212-15.952,72.96c0,0-8.833,71.492-1.139,119.7,0,0,2.034,36.5,19.369,95.76,0,0,12.484,39.258,28.486,69.54,0,0,23.686,48.188,51.273,79.8s35.321,39.9,35.321,39.9l-9.115-6.84s-44.3-27.07-93.431-104.88c0,0-47.526-72.991-62.667-190.38,0,0-5.794-92.126,2.278-131.1,0,0,7.486-50.722,22.789-90.06a499.242,499.242,0,0,1,33.042-74.1s25.439-44.61,51.273-74.1c0,0,32.382-39.43,44.437-47.88,0,0,24.993-26.266,67.225-55.86,0,0,56.668-37.512,72.922-42.179a484.7,484.7,0,0,1,86.6-36.48s52.732-19.9,91.152-22.8a584.873,584.873,0,0,1,87.734-9.12s69.472-1.806,118.5,6.84c0,0,69.46,9.866,134.45,33.06,0,0,43,14.224,110.52,51.3,0,0,77.88,41.886,136.73,93.479,0,0,40.86,31.275,102.55,103.74,0,0,30.49,34.4,55.83,87.78,0,0,19.73,37.391,26.2,76.38,0,0,7.45,64.127-3.42,90.06,0,0-11.41,49.763-39.87,83.22,0,0-16.95,26.355-60.39,60.42,0,0-44.71,30.165-84.32,42.18,0,0-49.06,22.375-148.12,13.68,0,0-66.2-10.18-104.83-34.2,0,0-53.91-21.523-107.1-96.9,0,0-27.15-31.742-46.72-119.7,0,0-8.572-51.409-1.14-85.5,0,0-33.011,17.885-76.336,69.54a742.643,742.643,0,0,0-45.576,60.42,7.747,7.747,0,0,1-5.7-1.14c-3.229-1.873-2.279-15.96-2.279-15.96s21.045-51.772,31.9-66.12c0,0,7.731-16.794,37.6-50.16,0,0,6.347-8.545,50.133-44.46C991.279,510.18,1012.53,494.509,1030.02,489.66ZM979.885,753s142.285,283.95,486.525,144.78c0,0,259.45-118.517,142.43-373.92,0,0-158.06-366.162-638.07-409.259,0,0-345.686-29.107-565.145,263.339,0,0-38.768,53.126-70.643,133.38,0,0,37.854-237.774,328.149-363.659,0,0,321.792-148.636,651.739,49.02,0,0,315.36,169.3,341.82,414.959,0,0,39.3,202.828-190.28,311.22C1466.41,922.86,1131.85,1068.03,979.885,753ZM419.3,767.82S374.669,424.663,756.562,281.04c0,0,229.2-99.7,484.248,59.28,0,0,183.24,104.4,249.53,249.66,0,0,45.49,94.975-56.97,166.44,0,0-55.16,50-175.47,38.76,0,0,73.61,20.579,128.75,3.42,0,0,47.4-11.834,86.6-53.58,0,0,72.61-63.486,30.76-167.58,0,0-55.47-139.875-249.53-254.22S850.885,201.905,677.943,290.16C677.943,290.16,362.925,437.834,419.3,767.82Z"/>
</svg>
