<svg xmlns="http://www.w3.org/2000/svg" width="1920" height="1040" viewBox="0 0 1920 1040">
  <defs>
    <style>
      .cls-1 {
        fill: #535353;
        fill-rule: evenodd;
      }
    </style>
  </defs>
  <path id="Forma_3" data-name="Forma 3" class="cls-1" d="M996.074,436.773s25.156-12.4,34.976,20,37.48,70,37.48,70,16.3,21.352,44.98,42.5,39.98,23.749,39.98,23.749,1.26,3.637-7.5,6.25c0,0-28.83-2.312-52.47-15s-50.69-30.049-58.72-40-14.76-13.075-19.99-22.5l-1.25-1.249s-4.16,37.084,1.25,62.5c0,0,7.94,50.175,17.49,70a284.493,284.493,0,0,0,24.99,51.248s19.33,32.585,47.47,56.247c0,0,36.74,34.628,78.71,50,0,0,45.39,20.847,94.95,22.5,0,0,52.36,4.406,78.7-3.75,0,0,53.17-6.67,102.44-37.5,0,0,37.52-23.329,71.21-63.747,0,0,31.97-36.759,42.48-96.247,0,0,8.17-55.938-17.49-112.495,0,0-22.62-63.606-87.45-133.745,0,0-52.66-58.766-103.69-97.5,0,0-71.18-58.331-141.17-91.246,0,0-87.85-47.27-163.66-62.5,0,0-57.65-15.421-116.187-20,0,0-56.527-5.167-162.409,6.25,0,0-114.477,15.045-237.367,91.246,0,0-73.88,47.467-118.684,98.746,0,0-39.463,41.039-73.709,100,0,0-27.737,45.3-44.975,103.746,0,0-9.587,34.222-17.49,80,0,0-9.684,78.387-1.249,131.245,0,0,2.231,40.023,21.238,105,0,0,13.688,43.044,31.233,76.247,0,0,25.971,52.836,56.218,87.5S435.137,1038,435.137,1038l-9.994-7.5S376.569,1000.82,322.7,915.505c0,0-52.109-80.032-68.711-208.742,0,0-6.352-101.012,2.5-143.745,0,0,8.207-55.615,24.986-98.746a547.417,547.417,0,0,1,36.23-81.247s27.893-48.913,56.219-81.247c0,0,35.5-43.234,48.722-52.5,0,0,27.4-28.8,73.709-61.248,0,0,62.133-41.131,79.955-46.248,0,0,40.415-23.03,94.947-40,0,0,57.818-21.818,99.944-25a641.366,641.366,0,0,1,96.2-10s76.171-1.979,129.927,7.5c0,0,76.157,10.818,147.417,36.249,0,0,47.15,15.6,121.18,56.248,0,0,85.39,45.927,149.92,102.5,0,0,44.8,34.291,112.44,113.746,0,0,33.43,37.715,61.21,96.246,0,0,21.63,41,28.74,83.747,0,0,8.16,70.312-3.75,98.746,0,0-12.52,54.563-43.73,91.247,0,0-18.58,28.9-66.21,66.247,0,0-49.02,33.075-92.45,46.249,0,0-53.79,24.532-162.41,15,0,0-72.58-11.162-114.93-37.5,0,0-59.12-23.6-117.44-106.246,0,0-29.762-34.8-51.22-131.245,0,0-9.4-56.367-1.249-93.746,0,0-36.2,19.609-83.7,76.247a814.138,814.138,0,0,0-49.972,66.247,8.5,8.5,0,0,1-6.247-1.249c-3.54-2.054-2.5-17.5-2.5-17.5s23.075-56.765,34.98-72.5c0,0,8.476-18.415,41.227-55,0,0,6.96-9.37,54.969-48.748C953.6,459.272,976.9,442.089,996.074,436.773ZM941.1,725.512S1097.11,1036.84,1474.56,884.256c0,0,284.47-129.948,156.16-409.985,0,0-173.3-401.479-699.61-448.733,0,0-379.028-31.914-619.653,288.739,0,0-42.508,58.25-77.457,146.245,0,0,41.5-260.708,359.8-398.735,0,0,352.829-162.972,714.6,53.748,0,0,345.78,185.631,374.79,454.983,0,0,43.09,222.391-208.63,341.237C1474.56,911.755,1107.73,1070.93,941.1,725.512ZM326.448,741.761s-48.933-376.255,369.793-533.73c0,0,251.307-109.314,530.949,65,0,0,200.92,114.465,273.6,273.74,0,0,49.89,104.134-62.46,182.493,0,0-60.48,54.826-192.4,42.5,0,0,80.71,22.563,141.17,3.75,0,0,51.97-12.976,94.95-58.748,0,0,79.62-69.609,33.73-183.743,0,0-60.82-153.367-273.59-278.739S799.662,121.263,610.04,218.031C610.04,218.031,264.638,379.948,326.448,741.761Z"/>
</svg>
