<svg xmlns="http://www.w3.org/2000/svg" width="2500" height="2500" viewBox="0 0 2500 2500">
  <defs>
    <style>
      .cls-1 {
        fill: #535353;
        fill-rule: evenodd;
      }
    </style>
  </defs>
  <path id="Forma_3" data-name="Forma 3" class="cls-1" d="M1312.59,1105.84s43.29-21.34,60.2,34.44,64.5,120.51,64.5,120.51,28.06,36.77,77.41,73.18,68.8,40.88,68.8,40.88,2.18,6.27-12.9,10.77c0,0-49.62-3.99-90.3-25.83s-87.25-51.74-101.06-68.87-25.41-22.51-34.4-38.73l-2.15-2.16s-7.17,63.85,2.15,107.61c0,0,13.66,86.39,30.1,120.52,0,0,15.49,44.46,43,88.23,0,0,33.28,56.11,81.71,96.85,0,0,63.23,59.61,135.46,86.08,0,0,78.12,35.89,163.41,38.74,0,0,90.12,7.58,135.46-6.46,0,0,91.49-11.48,176.31-64.56,0,0,64.56-40.17,122.56-109.76,0,0,55.01-63.29,73.1-165.71,0,0,14.05-96.31-30.1-193.69,0,0-38.94-109.51-150.51-230.27,0,0-90.64-101.181-178.46-167.866,0,0-122.51-100.431-242.97-157.1,0,0-151.19-81.386-281.67-107.605,0,0-99.21-26.552-199.96-34.434,0,0-97.29-8.9-279.519,10.761,0,0-197.023,25.9-408.526,157.1,0,0-127.153,81.724-204.264,170.015,0,0-67.918,70.657-126.858,172.168,0,0-47.739,78-77.4,178.62,0,0-16.5,58.93-30.1,137.74,0,0-16.668,134.96-2.15,225.97,0,0,3.84,68.91,36.552,180.77,0,0,23.557,74.11,53.754,131.28,0,0,44.7,90.97,96.756,150.65S347.173,2141,347.173,2141l-17.2-12.91s-83.6-51.11-176.311-198c0,0-89.684-137.79-118.258-359.39,0,0-10.933-173.92,4.3-247.5,0,0,14.125-95.75,43-170.01,0,0,22.911-68.59,62.354-139.89,0,0,48.006-84.212,96.757-139.883,0,0,61.107-74.437,83.855-90.388,0,0,47.164-49.586,126.858-105.452,0,0,106.936-70.816,137.609-79.628,0,0,69.557-39.65,163.411-68.867,0,0,99.509-37.565,172.011-43.041,0,0,72.405-14.481,165.56-17.217,0,0,131.1-3.408,223.62,12.913,0,0,131.07,18.625,253.71,62.41,0,0,81.15,26.853,208.57,96.844,0,0,146.96,79.075,258.01,176.472,0,0,77.1,59.04,193.51,195.837,0,0,57.55,64.94,105.36,165.71,0,0,37.23,70.59,49.45,144.19,0,0,14.05,121.06-6.45,170.02,0,0-21.53,93.94-75.25,157.1,0,0-31.97,49.76-113.96,114.06,0,0-84.37,56.95-159.11,79.63,0,0-92.58,42.24-279.52,25.83,0,0-124.92-19.22-197.81-64.57,0,0-101.73-40.63-202.11-182.92,0,0-51.23-59.93-88.16-225.97,0,0-16.18-97.05-2.15-161.41,0,0-62.3,33.76-144.06,131.28,0,0-40.23,46.76-86,114.06,0,0-4.66,1.38-10.75-2.15s-4.3-30.13-4.3-30.13,39.71-97.74,60.2-124.83c0,0,14.59-31.7,70.95-94.69,0,0,11.98-16.13,94.61-83.93C1239.48,1144.58,1279.59,1115,1312.59,1105.84Zm-94.61,497.14s268.5,536.03,918.11,273.31c0,0,489.6-223.73,268.77-705.88,0,0-298.26-691.247-1204.08-772.6,0,0-652.337-54.947-1066.471,497.133,0,0-73.158,100.291-133.309,251.792,0,0,71.432-448.867,619.24-686.514,0,0,607.25-280.6,1229.88,92.54,0,0,595.11,319.607,645.04,783.364,0,0,74.17,382.9-359.07,587.52C2136.09,1923.64,1504.76,2197.7,1217.98,1602.98ZM160.11,1630.95S75.892,983.14,796.552,712.01c0,0,432.518-188.21,913.808,111.909,0,0,345.79,197.081,470.88,471.311,0,0,85.86,179.29-107.51,314.2,0,0-104.08,94.4-331.12,73.17,0,0,138.91,38.85,242.97,6.46,0,0,89.43-22.34,163.41-101.15,0,0,137.03-119.85,58.05-316.36,0,0-104.68-264.05-470.88-479.912S974.547,562.618,648.192,729.227C648.192,729.227,53.731,1008.01,160.11,1630.95Z"/>
</svg>
